<?xml version="1.0" encoding="UTF-8" standalone="no"?>
<!DOCTYPE svg PUBLIC "-//W3C//DTD SVG 1.1//EN" "http://www.w3.org/Graphics/SVG/1.1/DTD/svg11.dtd">
<svg width="100%" height="100%" viewBox="0 0 3544 3544" version="1.1" xmlns="http://www.w3.org/2000/svg" xmlns:xlink="http://www.w3.org/1999/xlink" xml:space="preserve" xmlns:serif="http://www.serif.com/" style="fill-rule:evenodd;clip-rule:evenodd;stroke-linejoin:round;stroke-miterlimit:2;">
    <g transform="matrix(4.103729,0,-0,4.103729,-18296.798353,-14709.482472)">
        <g transform="matrix(0,-2.546828,2.546828,0,-4261.927191,15090.038203)">
            <path d="M4459.123,3581.312L4463.457,3581.312C4466.952,3581.312 4469.66,3580.165 4471.582,3577.87C4473.505,3575.576 4474.291,3572.605 4473.941,3568.957L4471.32,3542.307C4470.738,3535.953 4471.641,3530.394 4474.029,3525.628C4476.417,3520.863 4480.087,3517.157 4485.038,3514.509C4489.989,3511.862 4495.901,3510.538 4502.774,3510.538L4517.628,3510.538L4517.628,3535.247L4508.017,3535.247C4504.638,3535.247 4501.988,3536.218 4500.066,3538.159C4498.144,3540.101 4497.299,3542.66 4497.532,3545.837L4500.153,3572.487C4500.619,3577.9 4499.076,3582.459 4495.523,3586.165C4491.969,3589.872 4486.989,3592.313 4480.582,3593.49C4486.989,3594.549 4491.969,3596.99 4495.523,3600.814C4499.076,3604.638 4500.619,3609.315 4500.153,3614.845L4497.532,3641.319C4497.183,3644.496 4497.969,3647.055 4499.891,3648.997C4501.813,3650.938 4504.522,3651.909 4508.017,3651.909L4517.628,3651.909L4517.628,3676.618L4502.774,3676.618C4495.901,3676.618 4489.96,3675.235 4484.95,3672.47C4479.941,3669.705 4476.242,3665.881 4473.854,3660.998C4471.466,3656.115 4470.621,3650.438 4471.32,3643.967L4473.941,3618.375C4474.291,3614.61 4473.505,3611.61 4471.582,3609.374C4469.66,3607.139 4466.952,3606.021 4463.457,3606.021L4459.107,3606.021L4460.175,3593.96C4460.197,3593.706 4460.197,3593.45 4460.175,3593.196L4459.123,3581.312Z" style="fill:rgb(168,85,247);fill-rule:nonzero;"/>
        </g>
        <g transform="matrix(0.282897,-0,0,0.282897,4389.101138,3514.941076)">
            <path d="M1787.116,2940.783L2147.557,2889.994L2147.557,3043.074L2147.55,3044.159L2147.557,3044.925L2147.557,3246.416C2147.557,3274.728 2116.132,3297.714 2077.424,3297.714L1937.157,3297.714C1898.45,3297.714 1867.024,3274.728 1867.024,3246.416L1867.024,3145.67L1676.283,3145.67L1676.283,3246.416C1676.283,3274.728 1644.857,3297.714 1606.15,3297.714L1465.883,3297.714C1427.175,3297.714 1395.75,3274.728 1395.75,3246.416L1395.75,3044.925L1395.757,3044.159L1395.75,3043.074L1395.75,2888.383L1769.065,2940.787C1775.052,2941.628 1781.128,2941.626 1787.116,2940.783Z" style="fill:rgb(168,85,247);"/>
        </g>
        <g transform="matrix(0.282897,-0,0,0.282897,4389.101138,3514.941076)">
            <path d="M1778.073,2876.611L947.237,2759.983C895.563,2759.983 853.61,2719.429 853.61,2669.479L768.729,1818.206C791.937,1828.47 816.699,1838.33 842.727,1847.756C1189.685,1973.417 1767.897,2029.605 1767.897,2029.605C1770.395,2029.846 1772.912,2029.846 1775.41,2029.605C1775.41,2029.605 2353.622,1973.417 2700.581,1847.756C2728.422,1837.673 2754.816,1827.093 2779.408,1816.054L2699.398,2669.479C2699.398,2719.429 2657.446,2759.983 2605.771,2759.983L1778.073,2876.611ZM2010.981,2481.859C2104.518,2481.859 2057.888,2331.752 2106.85,2324.756C2108.068,2324.59 2109.292,2324.504 2110.521,2324.504L2336.726,2324.504C2391.664,2324.504 2340.498,2481.859 2436.266,2481.859L2436.266,2282.779C2436.266,2227.841 2391.664,2183.238 2336.726,2183.238L2110.521,2183.238C2055.583,2183.238 2010.981,2227.841 2010.981,2282.779L2010.981,2481.859ZM1107.041,2481.859C1200.578,2481.859 1153.948,2331.752 1202.91,2324.756C1204.128,2324.59 1205.352,2324.504 1206.581,2324.504L1432.786,2324.504C1487.724,2324.504 1436.557,2481.859 1532.326,2481.859L1532.326,2282.779C1532.326,2227.841 1487.724,2183.238 1432.786,2183.238L1206.581,2183.238C1151.643,2183.238 1107.041,2227.841 1107.041,2282.779L1107.041,2481.859Z" style="fill:rgb(168,85,247);"/>
        </g>
        <g transform="matrix(0.282897,-0,0,0.282897,4389.101138,3514.941076)">
            <path d="M642.781,1612.059L642.781,940.824L1771.654,840.884L2900.526,940.824L2900.526,1612.059C2900.526,1634.099 2886.998,1653.589 2866.543,1672.635C2863.558,1675.413 2860.432,1678.165 2857.169,1680.89C2838.308,1696.643 2814.887,1711.503 2787.888,1725.602C2754.72,1742.922 2716.152,1759.094 2673.998,1774.361C2350.387,1891.566 1821.246,1946.568 1771.653,1951.534C1722.052,1946.567 1192.917,1891.565 869.309,1774.361C828.964,1759.748 791.902,1744.308 759.717,1727.825C732.854,1714.067 709.389,1699.583 690.245,1684.249C685.479,1680.431 680.981,1676.56 676.765,1672.635C656.309,1653.589 642.781,1634.099 642.781,1612.059ZM1638.977,1063.542C1638.977,1031.839 1613.239,1006.101 1581.536,1006.101L1466.654,1006.101C1434.952,1006.101 1409.213,1031.839 1409.213,1063.542L1409.213,1646.997C1409.213,1678.7 1434.952,1704.438 1466.654,1704.438L1581.536,1704.438C1613.239,1704.438 1638.977,1678.7 1638.977,1646.997L1638.977,1063.542ZM1904.33,1063.542L1904.33,1646.997C1904.33,1678.7 1930.068,1704.438 1961.771,1704.438L2076.653,1704.438C2108.355,1704.438 2134.094,1678.7 2134.094,1646.997L2134.094,1063.542C2134.094,1031.839 2108.355,1006.101 2076.653,1006.101L1961.771,1006.101C1930.068,1006.101 1904.33,1031.839 1904.33,1063.542ZM2413.096,1142.116L2413.096,1507.64C2413.096,1539.342 2438.834,1565.081 2470.537,1565.081L2585.419,1565.081C2617.121,1565.081 2642.86,1539.342 2642.86,1507.64L2642.86,1142.116C2642.86,1110.413 2617.121,1084.675 2585.419,1084.675L2470.537,1084.675C2438.834,1084.675 2413.096,1110.413 2413.096,1142.116ZM1130.212,1142.116C1130.212,1110.413 1104.473,1084.675 1072.771,1084.675L957.889,1084.675C926.186,1084.675 900.447,1110.413 900.447,1142.116L900.447,1507.64C900.447,1539.342 926.186,1565.081 957.889,1565.081L1072.771,1565.081C1104.473,1565.081 1130.212,1539.342 1130.212,1507.64L1130.212,1142.116Z" style="fill:rgb(168,85,247);"/>
        </g>
    </g>
</svg>
